<svg width="14" height="14" viewBox="0 0 14 14" fill="none" xmlns="http://www.w3.org/2000/svg">
<path d="M13.2366 0.767846C12.9932 0.524412 12.7043 0.331307 12.3863 0.199559C12.0682 0.0678104 11.7274 0 11.3831 0C11.0389 0 10.698 0.0678104 10.38 0.199559C10.062 0.331307 9.77302 0.524412 9.52963 0.767846L1.65763 8.63985C1.28376 9.01396 1.01715 9.48156 0.88563 9.99385L0.0156303 13.3798C-0.00594441 13.4641 -0.00517194 13.5525 0.0178714 13.6364C0.0409148 13.7202 0.0854321 13.7966 0.147028 13.858C0.208623 13.9194 0.285167 13.9637 0.3691 13.9864C0.453033 14.0092 0.541454 14.0097 0.62563 13.9878L4.01063 13.1188C4.52301 12.9876 4.99067 12.7209 5.36463 12.3468L13.2366 4.47485C13.4801 4.23146 13.6732 3.9425 13.8049 3.62447C13.9367 3.30645 14.0045 2.96558 14.0045 2.62135C14.0045 2.27711 13.9367 1.93625 13.8049 1.61822C13.6732 1.30019 13.4801 1.01124 13.2366 0.767846ZM10.2366 1.47485C10.5407 1.17078 10.9531 0.99995 11.3831 0.99995C11.8132 0.99995 12.2256 1.17078 12.5296 1.47485C12.8337 1.77892 13.0045 2.19133 13.0045 2.62135C13.0045 3.05137 12.8337 3.46378 12.5296 3.76785L11.7506 4.54685L9.45763 2.25385L10.2366 1.47485ZM8.75063 2.96085L11.0436 5.25385L4.65763 11.6398C4.41001 11.887 4.10057 12.0631 3.76163 12.1498L1.19463 12.8098L1.85463 10.2428C1.94071 9.90365 2.11693 9.59405 2.36463 9.34685L8.75063 2.96085Z" fill="white"/>
</svg>
