<svg xmlns="http://www.w3.org/2000/svg" style="display:none;">

<symbol id="leave-btn" viewBox="0 0 30 23">
    <path d="M0.497462 10.2574C0.178937 10.5814 -5.23632e-07 11.0207 -5.03609e-07 11.4788C-4.83586e-07 11.9368 0.178937 12.3762 0.497462 12.7001L10.1091 22.4726C10.2658 22.6376 10.4533 22.7692 10.6606 22.8597C10.8679 22.9503 11.0908 22.9979 11.3164 22.9999C11.542 23.0019 11.7657 22.9582 11.9746 22.8714C12.1834 22.7845 12.3731 22.6562 12.5326 22.494C12.6921 22.3318 12.8183 22.1389 12.9037 21.9266C12.9892 21.7143 13.0321 21.4869 13.0302 21.2575C13.0282 21.0281 12.9814 20.8014 12.8923 20.5907C12.8033 20.3799 12.6738 20.1893 12.5115 20.0299L5.80024 13.2063L28.3009 13.2063C28.7516 13.2063 29.1837 13.0243 29.5024 12.7003C29.821 12.3763 30 11.9369 30 11.4788C30 11.0206 29.821 10.5812 29.5024 10.2572C29.1837 9.93327 28.7516 9.75127 28.3009 9.75127L5.80024 9.75127L12.5115 2.92762C12.821 2.60181 12.9923 2.16544 12.9884 1.7125C12.9846 1.25955 12.8059 0.826269 12.4908 0.505975C12.1758 0.185682 11.7497 0.0040011 11.3042 6.62631e-05C10.8587 -0.00387049 10.4295 0.170251 10.1091 0.484932L0.497462 10.2574Z" fill="black"/>
</symbol>

<symbol id="edit-btn" viewBox="0 0 52 52">
    <rect width="52" height="52" rx="26" fill="black"/>
    <path d="M38.5699 19.944L35.1292 23.3699L29.6154 17.8561L33.056 14.4301C33.6295 13.8566 34.5852 13.8566 35.1292 14.4301L38.5699 17.8708C39.1434 18.4148 39.1434 19.3705 38.5699 19.944ZM14 33.4861L28.7919 18.6795L34.3058 24.1934L19.5139 39H14V33.4861ZM34.0265 15.5329L31.7621 17.7972L35.2028 21.2379L37.4671 18.9735L34.0265 15.5329ZM32.1738 24.2963L28.7037 20.8262L15.4704 34.089V37.5296H18.911L32.1738 24.2963Z" fill="white"/>
</symbol>

<symbol id="edit-btn1" viewBox="0 0 26 25">
    <path d="M24.6727 5.94398L21.2177 9.36995L15.6807 3.85605L19.1358 0.430084C19.7116 -0.143361 20.6713 -0.143361 21.2177 0.430084L24.6727 3.87075C25.2486 4.41479 25.2486 5.37053 24.6727 5.94398ZM0 19.4861L14.8538 4.67946L20.3908 10.1934L5.53697 25H0V19.4861ZM20.1103 1.53286L17.8364 3.79724L21.2915 7.23791L23.5653 4.97353L20.1103 1.53286ZM18.2498 10.2963L14.7652 6.8262L1.47652 20.089V23.5296H4.93159L18.2498 10.2963Z" fill="black"/>
</symbol>

</svg>