<svg width="14" height="10" viewBox="0 0 14 10" fill="none" xmlns="http://www.w3.org/2000/svg">
<path d="M4.99772 10L0.112623 4.95166C0.0358915 4.85898 -0.00420379 4.73976 0.000349302 4.61783C0.0049024 4.49589 0.0537685 4.38023 0.137183 4.29394C0.220597 4.20766 0.332415 4.15711 0.450292 4.1524C0.56817 4.14769 0.683424 4.18917 0.773024 4.26854L4.98835 8.62891L13.227 0.116498C13.3166 0.0371265 13.4318 -0.00434844 13.5497 0.00036132C13.6676 0.00507108 13.7794 0.0556186 13.8628 0.141903C13.9462 0.228187 13.9951 0.343853 13.9997 0.465786C14.0042 0.587719 13.9641 0.706939 13.8874 0.799622L4.99772 10Z" fill="black"/>
</svg>
