<svg width="19" height="19" viewBox="0 0 19 19" fill="none" xmlns="http://www.w3.org/2000/svg">
<g clip-path="url(#clip0_1_72)">
<path d="M14.3239 17.9444H4.67616C4.47306 17.9396 4.27291 17.8949 4.08712 17.8127C3.90133 17.7305 3.73356 17.6126 3.59338 17.4655C3.45321 17.3185 3.34338 17.1453 3.27017 16.9558C3.19696 16.7663 3.1618 16.5642 3.16671 16.3611V5.92694H4.22227V16.3611C4.21723 16.4256 4.22499 16.4905 4.2451 16.5519C4.26522 16.6134 4.29729 16.6703 4.33947 16.7194C4.38165 16.7684 4.43311 16.8086 4.49089 16.8377C4.54867 16.8668 4.61163 16.8842 4.67616 16.8889H14.3239C14.3885 16.8842 14.4514 16.8668 14.5092 16.8377C14.567 16.8086 14.6184 16.7684 14.6606 16.7194C14.7028 16.6703 14.7349 16.6134 14.755 16.5519C14.7751 16.4905 14.7829 16.4256 14.7778 16.3611V5.92694H15.8334V16.3611C15.8383 16.5642 15.8031 16.7663 15.7299 16.9558C15.6567 17.1453 15.5469 17.3185 15.4067 17.4655C15.2665 17.6126 15.0988 17.7305 14.913 17.8127C14.7272 17.8949 14.527 17.9396 14.3239 17.9444Z" fill="black"/>
<path d="M16.245 4.75001H2.63886C2.49889 4.75001 2.36464 4.69441 2.26567 4.59543C2.16669 4.49645 2.11108 4.36221 2.11108 4.22224C2.11108 4.08226 2.16669 3.94802 2.26567 3.84904C2.36464 3.75006 2.49889 3.69446 2.63886 3.69446H16.245C16.3849 3.69446 16.5192 3.75006 16.6182 3.84904C16.7171 3.94802 16.7728 4.08226 16.7728 4.22224C16.7728 4.36221 16.7171 4.49645 16.6182 4.59543C16.5192 4.69441 16.3849 4.75001 16.245 4.75001Z" fill="black"/>
<path d="M11.0834 6.86111H12.1389V14.7778H11.0834V6.86111Z" fill="black"/>
<path d="M6.86108 6.86111H7.91664V14.7778H6.86108V6.86111Z" fill="black"/>
<path d="M12.1389 3.09276H11.1361V2.1111H7.86386V3.09276H6.86108V2.1111C6.86075 1.84006 6.96468 1.57927 7.15136 1.38276C7.33804 1.18626 7.59316 1.06909 7.86386 1.05554H11.1361C11.4068 1.06909 11.6619 1.18626 11.8486 1.38276C12.0353 1.57927 12.1392 1.84006 12.1389 2.1111V3.09276Z" fill="black"/>
</g>
<defs>
<clipPath id="clip0_1_72">
<rect width="19" height="19" fill="white"/>
</clipPath>
</defs>
</svg>
